<svg width="41" height="38" viewBox="0 0 41 38" fill="none" xmlns="http://www.w3.org/2000/svg">
<path id="Vector" d="M12.35 0H29.15C35.55 0 40.75 4.94 40.75 11.02V26.98C40.75 29.9027 39.5279 32.7057 37.3524 34.7723C35.177 36.839 32.2265 38 29.15 38H12.35C5.95 38 0.75 33.06 0.75 26.98V11.02C0.75 8.09731 1.97214 5.29433 4.14756 3.22768C6.32298 1.16103 9.27349 0 12.35 0ZM11.95 3.8C10.0404 3.8 8.20909 4.52064 6.85883 5.80339C5.50857 7.08614 4.75 8.82592 4.75 10.64V27.36C4.75 31.141 7.97 34.2 11.95 34.2H29.55C31.4596 34.2 33.2909 33.4794 34.6412 32.1966C35.9914 30.9139 36.75 29.1741 36.75 27.36V10.64C36.75 6.859 33.53 3.8 29.55 3.8H11.95ZM31.25 6.65C31.913 6.65 32.5489 6.90022 33.0178 7.34562C33.4866 7.79102 33.75 8.39511 33.75 9.025C33.75 9.65489 33.4866 10.259 33.0178 10.7044C32.5489 11.1498 31.913 11.4 31.25 11.4C30.587 11.4 29.9511 11.1498 29.4822 10.7044C29.0134 10.259 28.75 9.65489 28.75 9.025C28.75 8.39511 29.0134 7.79102 29.4822 7.34562C29.9511 6.90022 30.587 6.65 31.25 6.65ZM20.75 9.5C23.4022 9.5 25.9457 10.5009 27.8211 12.2825C29.6964 14.0641 30.75 16.4804 30.75 19C30.75 21.5196 29.6964 23.9359 27.8211 25.7175C25.9457 27.4991 23.4022 28.5 20.75 28.5C18.0978 28.5 15.5543 27.4991 13.6789 25.7175C11.8036 23.9359 10.75 21.5196 10.75 19C10.75 16.4804 11.8036 14.0641 13.6789 12.2825C15.5543 10.5009 18.0978 9.5 20.75 9.5ZM20.75 13.3C19.1587 13.3 17.6326 13.9005 16.5074 14.9695C15.3821 16.0384 14.75 17.4883 14.75 19C14.75 20.5117 15.3821 21.9616 16.5074 23.0305C17.6326 24.0995 19.1587 24.7 20.75 24.7C22.3413 24.7 23.8674 24.0995 24.9926 23.0305C26.1179 21.9616 26.75 20.5117 26.75 19C26.75 17.4883 26.1179 16.0384 24.9926 14.9695C23.8674 13.9005 22.3413 13.3 20.75 13.3Z" fill="#F8F8F8"/>
</svg>
